<svg xmlns="http://www.w3.org/2000/svg" viewBox="0 0 400 300" width="100%" height="100%">
    <defs>
        <linearGradient id="cyberBg" x1="0%" y1="0%" x2="100%" y2="100%">
            <stop offset="0%" stop-color="#0a0b10"/>
            <stop offset="100%" stop-color="#161821"/>
        </linearGradient>
        <filter id="neonBlue" x="-20%" y="-20%" width="140%" height="140%">
            <feGaussianBlur stdDeviation="6" result="blur" />
            <feComposite in="SourceGraphic" in2="blur" operator="over" />
        </filter>
        <radialGradient id="ferrite" cx="50%" cy="50%" r="50%">
            <stop offset="70%" stop-color="#111"/>
            <stop offset="100%" stop-color="#333"/>
        </radialGradient>
    </defs>
    <rect width="400" height="300" fill="url(#cyberBg)" rx="15"/>
    <path d="M0,50 L400,50 M0,100 L400,100 M0,150 L400,150 M0,200 L400,200 M0,250 L400,250" stroke="#00f2ff" stroke-width="0.5" stroke-opacity="0.1"/>
    <path d="M50,0 L50,300 M100,0 L100,300 M150,0 L150,300 M200,0 L200,300 M250,0 L250,300 M300,0 L300,300 M350,0 L350,300" stroke="#00f2ff" stroke-width="0.5" stroke-opacity="0.1"/>
    
    <circle cx="200" cy="140" r="70" fill="none" stroke="url(#ferrite)" stroke-width="40" filter="url(#neonBlue)"/>
    
    <g stroke="#ff9d00" stroke-width="8" fill="none" filter="drop-shadow(0px 0px 4px #ff5500)">
        <path d="M190,50 Q200,45 210,50 L230,80" />
        <path d="M230,55 Q240,55 250,65 L260,95" />
        <path d="M265,70 Q275,75 285,90 L280,120" />
        <path d="M290,100 Q300,110 305,125 L290,150" />
        <path d="M305,135 Q310,150 310,165 L285,180" />
        <path d="M305,175 Q300,190 290,205 L265,200" />
        <path d="M285,210 Q275,225 260,235 L240,215" />
    </g>
    <text x="200" y="270" fill="#00f2ff" font-family="monospace" font-size="24" font-weight="bold" text-anchor="middle" filter="url(#neonBlue)">IND-TOR-100U</text>
</svg>
